# 
# Wavefront OBJ file
# Converted by the DEEP Exploration Deep Exploration 6.5 x64 6.5.0.9182
# Right Hemisphere, LTD
# http://www.righthemisphere.com/
# 
mtllib Sardina_2022.mtl
# object Sardina
g Sardina
v -1.10396 -3.90957 -12.79698
v -0.75335 -3.88826 -11.29011
v -0.79504 -2.07835 -11.18161
v -1.13698 -2.08456 -12.79700
v 0.07708 -3.86239 -10.67337
v 0.03443 -2.06334 -10.51165
v 0.90751 -3.88827 -11.29011
v 0.86554 -2.04830 -11.17958
v 1.24445 -3.86708 -12.79410
v 1.21143 -2.04207 -12.79413
v 0.90231 -3.87329 -14.24771
v 0.86949 -2.04827 -14.40952
v 0.07276 -3.88830 -14.94042
v 0.04001 -2.06328 -15.07948
v -0.75827 -3.90333 -14.24974
v -0.79110 -2.07832 -14.41155
v -0.07384 -9.44672 -12.91094
v 0.03265 -9.44763 -12.95875
v 0.13915 -9.44855 -12.91096
v 0.18328 -9.44893 -12.79555
v 0.13918 -9.44855 -12.68013
v 0.03269 -9.44763 -12.63232
v -0.07381 -9.44672 -12.68011
v -0.11794 -9.44635 -12.79552
v 2.80767 15.81700 -10.04655
v 2.86886 15.88598 -9.80241
v 2.84065 15.78386 -9.60434
v 2.91929 15.85361 -9.80286
v 2.87898 15.77121 -10.04718
v -0.83950 0.40225 -11.12662
v -1.18160 0.40170 -12.79703
v -0.00966 0.40238 -10.43433
v 0.82133 0.40254 -11.12524
v 1.16681 0.40309 -12.79416
v 0.82494 0.40289 -14.46423
v -0.00451 0.40240 -15.15685
v -0.83564 0.40190 -14.46627
v -0.76534 4.25292 -11.11725
v -1.06841 4.25292 -12.57069
v -0.03124 4.25293 -10.51471
v 0.70385 4.25294 -11.11602
v 1.00938 4.25294 -12.56896
v 0.70630 4.25294 -14.02240
v -0.02780 4.25293 -14.67880
v -0.76292 4.25292 -14.02362
v -0.49266 7.90793 -11.23880
v -0.72300 7.90807 -12.31724
v 0.06270 7.90757 -10.84508
v 0.61773 7.90722 -11.23923
v 0.84734 7.90708 -12.31785
v 0.61746 7.90725 -13.39629
v 0.06338 7.90757 -13.84282
v -0.49301 7.90790 -13.39586
v -0.20226 10.50207 -11.44693
v -0.36222 10.50199 -12.12490
v 0.17866 10.50226 -11.16738
v 0.55741 10.50245 -11.44998
v 0.71211 10.50252 -12.12920
v 0.55215 10.50245 -12.80716
v 0.17122 10.50225 -13.08672
v -0.20752 10.50207 -12.80412
v 0.56915 12.37912 -11.49642
v 0.49497 12.40908 -12.01417
v 0.74286 12.30615 -11.28312
v 0.91467 12.23341 -11.49922
v 0.98289 12.20418 -12.01812
v 0.91018 12.23476 -12.53588
v 0.73536 12.30736 -12.74917
v 0.56393 12.37905 -12.53308
v 0.87548 12.86780 -11.49777
v 0.83946 12.88481 -12.01583
v 0.95490 12.82974 -11.28372
v 1.03134 12.79263 -11.49906
v 1.05968 12.77814 -12.01765
v 1.02415 12.79497 -12.53572
v 0.94465 12.83297 -12.74978
v 0.86822 12.86999 -12.53443
v -1.11180 -5.95485 -12.79541
v -0.76769 -5.95780 -11.49256
v -0.76799 -5.95780 -14.09832
v 0.06235 -5.96492 -14.63809
v 0.89280 -5.97205 -14.09851
v 1.23691 -5.97501 -12.79567
v 0.89311 -5.97205 -11.49276
v 0.07708 -5.96498 -11.00685
v -0.68935 -8.29488 -12.79545
v -0.47491 -8.29671 -12.05981
v -0.47508 -8.29671 -13.53115
v 0.04239 -8.30116 -13.83593
v 0.55993 -8.30559 -13.53127
v 0.77437 -8.30743 -12.79562
v 0.56009 -8.30559 -12.05992
v 0.04263 -8.30116 -11.75514
v -0.33667 -9.29304 -12.79550
v -0.22808 -9.29397 -12.51149
v -0.22814 -9.29397 -13.07953
v 0.03393 -9.29622 -13.19720
v 0.29602 -9.29846 -13.07959
v 0.40461 -9.29940 -12.79558
v 0.29608 -9.29846 -12.51155
v 0.03402 -9.29622 -12.39387
v 1.16727 13.39749 -11.24437
v 1.12394 13.41559 -12.01665
v 1.23267 13.36384 -10.92491
v 1.28954 13.33374 -11.24540
v 1.29848 13.33053 -12.01810
v 1.27703 13.33865 -12.79036
v 1.21408 13.37081 -13.10982
v 1.15449 13.40188 -12.78934
v 1.59098 13.96162 -10.96253
v 1.54569 13.98481 -12.01744
v 1.64548 13.92783 -10.52593
v 1.68777 13.89985 -10.96339
v 1.68344 13.90004 -12.01864
v 1.67069 13.90793 -13.07353
v 1.62525 13.93728 -13.51013
v 1.57380 13.96941 -13.07267
v 1.89353 14.39392 -10.64102
v 1.76936 14.25709 -12.01794
v 1.93006 14.37098 -10.20430
v 1.96067 14.35081 -10.64162
v 1.86435 14.19642 -12.01878
v 1.93796 14.35455 -13.49163
v 1.90142 14.37749 -13.92836
v 1.87082 14.39766 -13.49104
v 1.77976 14.25045 -12.01803
v 3.03902 16.08411 -14.68504
v 3.08277 16.17865 -14.93405
v 3.04870 16.18409 -15.15804
v 3.03235 16.21102 -14.93360
v 2.96771 16.12989 -14.68441
v 2.20463 14.85941 -10.37491
v 2.17703 14.85147 -11.25262
v 2.23280 14.84185 -9.93811
v 2.25505 14.82704 -10.37536
v 2.24834 14.80567 -11.25325
v 2.21263 14.80888 -13.86570
v 2.23022 14.79884 -12.81073
v 2.18445 14.82646 -14.30251
v 2.16220 14.84126 -13.86526
v 2.15892 14.84462 -12.81010
v 2.52176 15.35014 -10.14525
v 2.49079 15.33018 -10.53099
v 2.54994 15.33257 -9.70844
v 2.57218 15.31776 -10.14570
v 2.56210 15.28439 -10.53162
v 2.61855 15.44778 -14.35753
v 2.62129 15.41921 -13.63946
v 2.59037 15.46535 -14.79433
v 2.56813 15.48016 -14.35708
v 2.54997 15.46500 -13.63882
v 1.92138 -1.84441 -13.20425
v 0.95909 -3.93346 -13.63265
v 0.95502 -3.93468 -13.84390
v 1.96461 -1.76236 -13.67341
v 0.90038 -3.93682 -14.11248
v 1.90300 -1.88186 -14.11073
v 0.80742 -3.96965 -14.17889
v 1.81512 -2.05168 -14.46980
v 0.80809 -3.96849 -14.24289
v 1.62707 -2.41393 -14.75959
v 1.90553 -1.83616 -13.20427
v 1.94877 -1.75412 -13.67343
v 0.92204 -3.91753 -13.84393
v 0.92612 -3.91632 -13.63269
v 1.88715 -1.87362 -14.11075
v 0.86741 -3.91967 -14.11252
v 1.79927 -2.04344 -14.46981
v 0.77444 -3.95249 -14.17893
v 1.61123 -2.40569 -14.75961
v 0.77512 -3.95134 -14.24293
v -1.88430 -1.91891 -13.20890
v -0.84730 -3.87417 -13.63485
v -0.78733 -3.87734 -13.84602
v -1.92884 -1.83818 -13.67817
v -0.69604 -3.92228 -14.11443
v -1.86258 -1.95575 -14.11533
v -0.71963 -4.01807 -14.18076
v -1.76874 -2.12283 -14.47418
v -0.72019 -4.01694 -14.24475
v -1.56915 -2.47923 -14.76350
v -1.89989 -1.92762 -13.20893
v -1.94444 -1.84690 -13.67819
v -0.81977 -3.89548 -13.84607
v -0.87974 -3.89230 -13.63490
v -1.87818 -1.96447 -14.11536
v -0.72848 -3.94042 -14.11447
v -1.78434 -2.13155 -14.47420
v -0.75208 -4.03621 -14.18080
v -1.58474 -2.48795 -14.76352
v -0.75263 -4.03507 -14.24480
v 0.00051 3.60560 -10.37492
v -0.05382 3.60532 -10.37496
v -0.04994 2.85082 -10.24161
v 0.00438 2.85111 -10.24156
v -0.03914 0.82152 -10.32000
v 0.01518 0.82180 -10.31996
v -0.02088 -0.51450 -10.42116
v 0.03344 -0.51352 -10.42109
v -0.00056 3.83818 -10.56868
v -0.05489 3.83789 -10.56872
v -0.04985 2.89278 -10.61499
v -0.03845 0.73838 -10.61499
v -0.00432 -1.41610 -10.61498
v 0.04999 -1.41511 -10.61491
v 0.01587 0.73867 -10.61494
v 0.00447 2.89307 -10.61494
v 0.44167 -8.72507 -12.23307
v 0.60851 -8.72650 -12.79560
v 0.44155 -8.72507 -13.35810
v 0.03859 -8.72162 -13.59105
v -0.36431 -8.71816 -13.35800
v -0.53116 -8.71673 -12.79547
v -0.36419 -8.71816 -12.23298
v 0.03877 -8.72162 -12.00003
v 0.70851 -7.31789 -11.77504
v 0.98052 -7.32023 -12.79526
v 0.70828 -7.31789 -13.81542
v 0.05128 -7.31225 -14.23792
v -0.60562 -7.30662 -13.81526
v -0.87763 -7.30428 -12.79504
v -0.60540 -7.30662 -11.77488
v 0.05798 -7.31228 -11.37716
v 0.90138 -4.77497 -11.37510
v 1.24124 -4.76406 -12.79427
v 0.89827 -4.76637 -14.21451
v 0.06833 -4.77196 -14.85595
v -0.76240 -4.77756 -14.21561
v -1.10730 -4.77989 -12.79584
v -0.75945 -4.76890 -11.37502
v 0.07708 -4.75710 -10.77867
v 1.19065 -0.90360 -12.79411
v 0.84496 -0.90719 -11.12253
v 0.01390 -0.91530 -10.43077
v -0.81574 -0.92338 -11.12429
v -1.15776 -0.92696 -12.79704
v -0.81184 -0.92352 -14.46878
v 0.01928 -0.91526 -15.16038
v 0.84875 -0.90701 -14.46671
v 1.08824 2.32454 -12.68176
v 0.76270 2.32426 -11.12064
v -0.02043 2.32417 -10.47445
v -0.80249 2.32411 -11.12194
v -1.12511 2.32383 -12.68406
v -0.79935 2.32393 -14.24535
v -0.01613 2.32418 -14.91826
v 0.76573 2.32443 -14.24371
v 0.92362 6.18683 -12.43579
v 0.65827 6.18691 -11.16952
v 0.01848 6.18709 -10.67366
v -0.62103 6.18727 -11.16987
v -0.88561 6.18735 -12.43627
v -0.62007 6.18726 -13.70254
v 0.02045 6.18709 -14.25226
v 0.65928 6.18692 -13.70219
# 255 verticies
vt 0.25150 0.16380
vt 0.25390 0.24640
vt 0.33230 0.25150
vt 0.32960 0.15970
vt 0.25470 0.28080
vt 0.33320 0.28990
vt 0.25160 0.56550
vt 0.25060 0.53120
vt 0.32900 0.53660
vt 0.33010 0.57460
vt 0.24830 0.44860
vt 0.32640 0.44480
vt 0.24600 0.36600
vt 0.32380 0.35300
vt 0.24500 0.33180
vt 0.32250 0.31450
vt 0.24800 0.04700
vt 0.24900 0.08120
vt 0.32690 0.06790
vt 0.32580 0.02990
vt 0.00870 0.45440
vt 0.01010 0.45120
vt 0.01000 0.45410
vt 0.01010 0.46080
vt 0.01040 0.46760
vt 0.01070 0.47010
vt 0.00930 0.46820
vt 0.00890 0.46090
vt 0.31570 0.94470
vt 0.31660 0.96490
vt 0.30660 0.97670
vt 0.31310 0.96270
vt 0.30450 0.94720
vt 0.30660 0.94410
vt 0.38147 0.25038
vt 0.37872 0.15714
vt 0.38241 0.28953
vt 0.37817 0.53558
vt 0.37931 0.57418
vt 0.37557 0.44233
vt 0.37292 0.34909
vt 0.37171 0.31022
vt 0.37597 0.06390
vt 0.37492 0.02562
vt 0.43510 0.15420
vt 0.43790 0.24910
vt 0.52015 0.24506
vt 0.51755 0.15630
vt 0.43890 0.28910
vt 0.52100 0.28286
vt 0.43580 0.57370
vt 0.43460 0.53440
vt 0.51690 0.53061
vt 0.51795 0.56736
vt 0.43200 0.43950
vt 0.51440 0.44185
vt 0.42930 0.34460
vt 0.51190 0.35309
vt 0.42820 0.30530
vt 0.51085 0.31633
vt 0.43130 0.02070
vt 0.43230 0.05930
vt 0.51495 0.06753
vt 0.51400 0.03168
vt 0.60030 0.15840
vt 0.60270 0.24100
vt 0.68542 0.23370
vt 0.68334 0.16173
vt 0.60340 0.27660
vt 0.68612 0.26490
vt 0.60040 0.56100
vt 0.59950 0.52680
vt 0.68222 0.51965
vt 0.68301 0.54946
vt 0.59710 0.44420
vt 0.68014 0.44769
vt 0.59480 0.36160
vt 0.67810 0.37568
vt 0.59380 0.32740
vt 0.67726 0.34587
vt 0.59700 0.04270
vt 0.59790 0.07580
vt 0.68120 0.08972
vt 0.68046 0.06122
vt 0.75720 0.16470
vt 0.75900 0.22720
vt 0.86970 0.20820
vt 0.86860 0.16970
vt 0.75970 0.25450
vt 0.87020 0.22590
vt 0.75650 0.53920
vt 0.75580 0.51330
vt 0.86650 0.49460
vt 0.86690 0.51060
vt 0.75400 0.45080
vt 0.86540 0.45610
vt 0.75220 0.38820
vt 0.86430 0.41750
vt 0.75150 0.36230
vt 0.86390 0.40150
vt 0.75470 0.07770
vt 0.75530 0.10210
vt 0.86740 0.13110
vt 0.86700 0.11700
vt 0.95030 0.20130
vt 0.94940 0.17190
vt 0.95070 0.21530
vt 0.94710 0.48790
vt 0.94740 0.50010
vt 0.94620 0.45850
vt 0.94540 0.42900
vt 0.94510 0.41680
vt 0.94860 0.14240
vt 0.94840 0.13200
vt 0.01980 0.81830
vt 0.02120 0.85410
vt 0.06030 0.85250
vt 0.05890 0.81680
vt 0.02180 0.87090
vt 0.06090 0.86730
vt 0.02170 0.87120
vt 0.02110 0.85640
vt 0.06020 0.85490
vt 0.06080 0.86760
vt 0.01980 0.82070
vt 0.05890 0.81920
vt 0.01840 0.78500
vt 0.05750 0.78350
vt 0.01790 0.77020
vt 0.05700 0.76870
vt 0.01810 0.77000
vt 0.01840 0.78260
vt 0.05750 0.78110
vt 0.05720 0.76890
vt 0.21367 0.16576
vt 0.21599 0.24470
vt 0.21130 0.08677
vt 0.21034 0.05411
vt 0.20826 0.37153
vt 0.20734 0.33882
vt 0.21047 0.45052
vt 0.21269 0.52946
vt 0.21364 0.56222
vt 0.21683 0.27752
vt 0.16480 0.24240
vt 0.16260 0.16840
vt 0.10717 0.17128
vt 0.10887 0.22743
vt 0.16040 0.09430
vt 0.10552 0.11509
vt 0.15950 0.06370
vt 0.10485 0.09186
vt 0.15650 0.34830
vt 0.15730 0.37900
vt 0.10242 0.39962
vt 0.10179 0.37635
vt 0.15940 0.45310
vt 0.10397 0.45582
vt 0.16150 0.52710
vt 0.10557 0.51197
vt 0.16240 0.55780
vt 0.10630 0.53541
vt 0.16570 0.27310
vt 0.10955 0.25071
vt 0.06390 0.21540
vt 0.06260 0.17360
vt 0.04349 0.17459
vt 0.04443 0.20490
vt 0.06140 0.13180
vt 0.04265 0.14431
vt 0.06090 0.11450
vt 0.04228 0.13177
vt 0.05780 0.39890
vt 0.05830 0.41620
vt 0.03951 0.42867
vt 0.03914 0.41621
vt 0.05940 0.45800
vt 0.04029 0.45894
vt 0.06060 0.49980
vt 0.04118 0.48926
vt 0.06120 0.51740
vt 0.04160 0.50210
vt 0.06440 0.23270
vt 0.04480 0.21745
vt 0.10270 0.86840
vt 0.10060 0.81520
vt 0.10340 0.89290
vt 0.10260 0.87090
vt 0.10060 0.81770
vt 0.09860 0.76440
vt 0.09750 0.73980
vt 0.09850 0.76190
vt 0.09770 0.73990
vt 0.15120 0.88600
vt 0.14830 0.81330
vt 0.15220 0.91860
vt 0.15100 0.88860
vt 0.15220 0.91870
vt 0.14830 0.81590
vt 0.14560 0.74320
vt 0.14430 0.71020
vt 0.14550 0.74060
vt 0.14430 0.71050
vt 0.18830 0.90680
vt 0.17220 0.81240
vt 0.18880 0.93950
vt 0.18810 0.90940
vt 0.18930 0.93950
vt 0.18040 0.71300
vt 0.17900 0.68020
vt 0.18020 0.71040
vt 0.17900 0.68030
vt 0.31860 0.62570
vt 0.32510 0.60830
vt 0.32310 0.58990
vt 0.22760 0.92360
vt 0.22380 0.86320
vt 0.22860 0.95640
vt 0.22740 0.92640
vt 0.22850 0.95650
vt 0.22380 0.86330
vt 0.17220 0.81230
vt 0.22390 0.86340
vt 0.21600 0.68590
vt 0.21870 0.75860
vt 0.21460 0.65320
vt 0.21580 0.68320
vt 0.21460 0.65310
vt 0.21880 0.75850
vt 0.26840 0.93790
vt 0.26510 0.91140
vt 0.26960 0.97110
vt 0.26820 0.94070
vt 0.26930 0.97080
vt 0.26230 0.91750
vt 0.26490 0.91420
vt 0.26690 0.65010
vt 0.26720 0.69970
vt 0.26550 0.61700
vt 0.26660 0.64740
vt 0.26540 0.61720
vt 0.26730 0.69960
vt 0.31300 0.96260
vt 0.31540 0.94440
vt 0.30660 0.97640
vt 0.30670 0.94420
vt 0.32540 0.60820
vt 0.32320 0.58990
vt 0.31850 0.62580
vt 0.02050 0.19200
vt 0.02000 0.17580
vt 0.01330 0.17610
vt 0.01350 0.18290
vt 0.01960 0.15970
vt 0.01310 0.16950
vt 0.01940 0.15300
vt 0.01330 0.16650
vt 0.01620 0.43750
vt 0.01640 0.44400
vt 0.01680 0.46010
vt 0.01730 0.47630
vt 0.01750 0.48330
vt 0.02070 0.19870
vt 0.01380 0.18540
vt 0.37840 0.66730
vt 0.60500 0.67870
vt 0.60860 0.70110
vt 0.37740 0.71840
vt 0.61310 0.72960
vt 0.39710 0.76290
vt 0.61750 0.73610
vt 0.42090 0.79820
vt 0.61850 0.74290
vt 0.46370 0.82300
vt 0.62030 0.83150
vt 0.61920 0.88260
vt 0.38990 0.85640
vt 0.39430 0.83420
vt 0.59780 0.92620
vt 0.38420 0.88470
vt 0.57270 0.96060
vt 0.37960 0.89100
vt 0.52900 0.98370
vt 0.37840 0.89780
vt 0.37650 0.71860
vt 0.37750 0.66750
vt 0.39620 0.76300
vt 0.42000 0.79830
vt 0.46280 0.82310
vt 0.52810 0.98360
vt 0.37650 0.89740
vt 0.39250 0.83390
vt 0.61940 0.83140
vt 0.76760 0.71620
vt 0.94790 0.71320
vt 0.95260 0.73150
vt 0.77000 0.75870
vt 0.96210 0.75390
vt 0.78920 0.79430
vt 0.97170 0.75770
vt 0.81120 0.82210
vt 0.97290 0.76330
vt 0.84840 0.83990
vt 0.97180 0.84680
vt 0.97100 0.88930
vt 0.78670 0.86880
vt 0.79070 0.85040
vt 0.95310 0.92560
vt 0.77800 0.89160
vt 0.93220 0.95420
vt 0.76850 0.89570
vt 0.89570 0.97340
vt 0.76760 0.90140
vt 0.97260 0.84690
vt 0.97170 0.88950
vt 0.95380 0.92580
vt 0.93290 0.95430
vt 0.89640 0.97360
vt 0.97450 0.76290
vt 0.84910 0.83970
vt 0.76830 0.71600
vt 0.94940 0.71280
vt 0.77180 0.58960
vt 0.70740 0.57820
vt 0.70740 0.64700
vt 0.53420 0.64040
vt 0.42020 0.63170
vt 0.79170 0.61910
vt 0.77180 0.63570
vt 0.79170 0.60620
vt 0.71100 0.61010
vt 0.52710 0.61010
vt 0.53420 0.58490
vt 0.34320 0.61010
vt 0.42020 0.59360
vt 0.34320 0.61520
vt 0.52710 0.61520
vt 0.71100 0.61520
# 338 texture verticies
vn -0.99972 -0.02280 -0.00680
vn -0.70211 -0.06910 0.70871
vn -0.72662 -0.05990 0.68442
vn -0.99928 -0.03740 -0.00700
vn 0.01410 -0.10290 0.99459
vn 0.00430 -0.07050 0.99750
vn 0.71353 -0.04560 0.69913
vn 0.72546 -0.01630 0.68807
vn 0.99998 0.00270 0.00640
vn 0.99962 0.02700 0.00610
vn 0.71175 -0.04720 -0.70085
vn 0.72837 -0.01240 -0.68507
vn -0.00160 -0.10390 -0.99459
vn -0.00320 -0.07100 -0.99747
vn -0.70384 -0.06540 -0.70734
vn -0.72418 -0.06450 -0.68658
vn -0.14850 -0.95349 -0.26230
vn -0.00500 -0.94768 -0.31919
vn 0.13820 -0.95523 -0.26161
vn 0.24590 -0.96930 -0.00010
vn 0.13820 -0.95523 0.26161
vn -0.00500 -0.94768 0.31919
vn -0.14840 -0.95351 0.26230
vn -0.25710 -0.96639 0.00010
vn 0.20319 0.56458 -0.79997
vn 0.67873 0.73204 0.05870
vn 0.19749 0.20579 0.95846
vn 0.84472 0.46481 0.26531
vn 0.86159 0.06040 -0.50400
vn -0.89275 -0.02604 0.44981
vn -0.99979 -0.02023 -0.00117
vn -0.00288 -0.02635 0.99965
vn 0.89149 0.00593 0.45300
vn 0.99987 0.01586 0.00114
vn 0.89254 0.00602 -0.45093
vn -0.00058 -0.02631 -0.99965
vn -0.89170 -0.02607 -0.45188
vn -0.99992 0.00920 -0.00870
vn -0.74322 -0.00550 0.66902
vn -0.89431 0.01609 0.44717
vn -0.99955 0.03010 -0.00079
vn -0.00270 -0.00430 0.99999
vn -0.00092 0.01951 0.99981
vn 0.73889 0.02110 0.67349
vn 0.89325 0.02620 0.44879
vn 0.99869 0.05110 -0.00350
vn 0.99914 0.04150 0.00119
vn 0.73239 0.06370 -0.67789
vn 0.89432 0.07581 -0.44096
vn -0.00330 0.05250 -0.99862
vn 0.00092 0.12911 -0.99163
vn -0.73439 0.02940 -0.67809
vn -0.89410 0.06552 -0.44305
vn -0.99437 0.10600 -0.00100
vn -0.73948 0.06760 0.66978
vn -0.88555 0.08359 0.45697
vn -0.99552 0.09460 0.00075
vn -0.00820 0.04370 0.99901
vn 0.00126 0.07992 0.99680
vn 0.73343 0.04410 0.67833
vn 0.88796 0.03892 0.45828
vn 0.99716 0.07530 0.00040
vn 0.99900 0.04470 0.00160
vn 0.72911 0.12910 -0.67211
vn 0.89145 0.09923 -0.44213
vn -0.00580 0.16730 -0.98589
vn 0.00184 0.21488 -0.97664
vn -0.73151 0.15010 -0.66511
vn -0.88576 0.14317 -0.44150
vn -0.98040 0.19700 0.00310
vn -0.72449 0.15600 0.67140
vn -0.67960 0.33130 0.65450
vn -0.90358 0.42829 0.01100
vn -0.00210 0.10840 0.99411
vn -0.03080 0.13120 0.99088
vn 0.73207 0.06860 0.67777
vn 0.69890 -0.04810 0.71360
vn 0.99614 0.08780 -0.00110
vn 0.99617 -0.08740 0.00030
vn 0.72609 0.16830 -0.66669
vn 0.70063 0.02680 -0.71303
vn 0.00510 0.24011 -0.97073
vn -0.02210 0.26491 -0.96402
vn -0.71353 0.23921 -0.65853
vn -0.65981 0.41761 -0.62471
vn -0.63639 0.56919 0.52060
vn -0.71600 0.69810 -0.00370
vn 0.03620 0.06670 0.99712
vn 0.78652 -0.26981 0.55551
vn 0.96347 -0.26709 0.01970
vn 0.79483 -0.26041 -0.54812
vn -0.00280 0.18159 -0.98337
vn -0.62058 0.60448 -0.49948
vn -0.69309 0.65519 0.30059
vn -0.68522 0.72832 -0.00450
vn -0.06720 -0.15669 0.98536
vn 0.77758 -0.54489 0.31379
vn 0.89282 -0.45021 0.01370
vn 0.79460 -0.51620 -0.31960
vn -0.14270 -0.03840 -0.98902
vn -0.71791 0.61951 -0.31751
vn -0.99998 -0.00582 0.00149
vn -0.85323 -0.05105 0.51903
vn -0.85871 -0.04209 -0.51073
vn 0.00524 -0.10640 -0.99431
vn 0.86077 -0.04807 -0.50672
vn 0.99989 -0.01487 -0.00142
vn 0.85855 -0.05784 0.50945
vn 0.00048 -0.12604 0.99203
vn -0.67449 -0.17560 0.71709
vn -0.98873 -0.14960 -0.00510
vn -0.98356 -0.18058 0.00016
vn -0.81173 -0.22480 0.53904
vn -0.67670 -0.17240 -0.71579
vn -0.81803 -0.22710 -0.52844
vn -0.00610 -0.20330 -0.97910
vn -0.00265 -0.30923 -0.95098
vn 0.67351 -0.19050 -0.71421
vn 0.81398 -0.24096 -0.52856
vn 0.98543 -0.17000 0.00590
vn 0.98034 -0.19732 -0.00006
vn 0.67660 -0.18700 0.71221
vn 0.81166 -0.23892 0.53304
vn 0.01160 -0.20431 0.97884
vn -0.00270 -0.29729 0.95478
vn -0.59698 -0.41018 0.68947
vn -0.91089 -0.41259 -0.00710
vn -0.93694 -0.34949 0.00010
vn -0.72501 -0.42531 0.54173
vn -0.59768 -0.41299 -0.68718
vn -0.72514 -0.42531 -0.54156
vn -0.00890 -0.41918 -0.90786
vn -0.00466 -0.51862 -0.85499
vn 0.58952 -0.42611 -0.68622
vn 0.71746 -0.43790 -0.54176
vn 0.90001 -0.43581 0.00700
vn 0.93073 -0.36572 -0.00010
vn 0.58981 -0.42830 0.68461
vn 0.71758 -0.43790 0.54159
vn 0.00300 -0.41891 0.90802
vn -0.00446 -0.51862 0.85500
vn -0.70339 0.68159 0.20170
vn -0.67770 0.73530 0.00700
vn -0.24701 -0.23151 0.94095
vn 0.64280 -0.75160 0.14800
vn 0.71763 -0.69643 -0.00220
vn 0.65282 -0.73942 -0.16460
vn -0.28041 -0.17590 -0.94363
vn -0.72039 0.66609 -0.19330
vn -0.65250 0.74700 0.12740
vn -0.60021 0.79981 0.00680
vn -0.25370 -0.29349 0.92168
vn 0.62942 -0.77342 0.07520
vn 0.66271 -0.74881 -0.00960
vn 0.63369 -0.76898 -0.08430
vn -0.30300 -0.29590 -0.90589
vn -0.66360 0.73900 -0.11630
vn -0.66591 0.74111 0.08560
vn -0.28221 0.64692 -0.70842
vn -0.23160 -0.23380 0.94430
vn 0.65417 -0.75367 0.06360
vn 0.97159 -0.23550 -0.02340
vn 0.65088 -0.75548 -0.07480
vn -0.35369 -0.30169 -0.88537
vn -0.68470 0.72530 -0.07160
vn -0.06910 0.89995 -0.43048
vn 0.91923 0.01570 0.39341
vn 0.83331 0.54691 0.08050
vn 0.34209 0.29469 -0.89226
vn 0.24090 0.97039 0.01750
vn -0.22490 0.92192 0.31541
vn -0.67230 0.73710 0.06850
vn -0.21391 -0.20671 0.95473
vn 0.65073 -0.75753 0.05200
vn 0.79731 -0.04040 -0.60221
vn 0.64958 -0.75757 -0.06430
vn 0.80015 -0.06970 0.59574
vn -0.34261 -0.29421 -0.89222
vn -0.68653 0.72533 -0.05070
vn -0.25601 0.86492 0.43171
vn -0.68128 0.72748 0.08140
vn -0.19561 -0.18151 0.96374
vn 0.64158 -0.76467 0.06050
vn 0.77300 -0.14970 -0.61650
vn 0.64132 -0.76412 -0.06950
vn 0.81688 -0.04570 0.57499
vn -0.31120 -0.27400 -0.90999
vn -0.69078 0.72118 -0.05220
vn -0.24891 0.87363 0.41811
vn -0.41649 -0.71329 0.56369
vn -0.69159 -0.72208 -0.01740
vn -0.42782 -0.69884 -0.57323
vn -0.01300 -0.68615 -0.72735
vn 0.40569 -0.72129 -0.56139
vn 0.67788 -0.73497 0.01720
vn 0.41699 -0.70709 0.57109
vn 0.00500 -0.68640 0.72720
vn 0.73011 0.14570 0.66761
vn 0.47532 -0.52752 0.70413
vn 0.77388 -0.61369 -0.15650
vn 0.93469 0.35150 -0.05300
vn 0.57630 -0.47390 -0.66580
vn 0.89841 0.22420 -0.37761
vn 0.70943 -0.64243 -0.28981
vn 0.80675 0.09829 -0.58266
vn 0.41830 -0.60879 -0.67409
vn 0.57008 -0.24859 -0.78308
vn -0.29671 0.65682 0.69322
vn -0.20801 0.97745 -0.03650
vn -0.76748 0.62198 0.15530
vn -0.68379 0.44420 0.57889
vn -0.26480 0.92940 -0.25710
vn -0.57318 0.48158 0.66298
vn -0.27460 0.82840 -0.48820
vn -0.70349 0.65079 0.28560
vn -0.43872 0.44862 -0.77863
vn -0.69821 0.47891 -0.53211
vn 0.25820 0.66340 0.70230
vn 0.58952 0.39351 0.70542
vn 0.70594 0.64004 0.30332
vn 0.16040 0.98638 -0.03650
vn 0.60759 0.60509 -0.51449
vn 0.22511 0.93542 -0.27261
vn 0.64870 0.64180 -0.40900
vn 0.26209 0.83486 -0.48407
vn 0.69090 0.48930 -0.53220
vn 0.44170 0.46510 -0.76720
vn -0.74151 0.10600 0.66251
vn -0.95030 0.30580 -0.05840
vn -0.71175 -0.63174 -0.30712
vn -0.57429 -0.63409 0.51779
vn -0.91099 0.18360 -0.36930
vn -0.61430 -0.59980 0.51270
vn -0.80050 0.08050 -0.59390
vn -0.65603 -0.63583 0.40662
vn -0.55240 -0.25410 -0.79390
vn -0.40781 -0.61352 -0.67622
vn 0.65092 0.32381 0.68662
vn -0.65622 0.31381 0.68622
vn -0.68486 0.04370 0.72736
vn 0.68284 0.05570 0.72844
vn -0.70428 -0.05100 0.70808
vn 0.70128 -0.02930 0.71228
vn -0.69741 -0.12260 0.70611
vn 0.67189 -0.08810 0.73539
vn 0.42402 0.58172 0.69413
vn -0.43160 0.57530 0.69480
vn -0.99996 -0.00930 -0.00150
vn -0.99983 -0.01820 -0.00010
vn -0.13050 -0.21241 0.96843
vn 0.13650 -0.20440 0.96932
vn 0.99980 0.02010 -0.00160
vn 0.99996 0.00930 0.00150
# 253 normals
usemtl SARDINA
f  1/1/1 2/2/2 3/3/3 4/4/4
f  2/2/2 5/5/5 6/6/6 3/3/3
f  5/7/5 7/8/7 8/9/8 6/10/6
f  7/8/7 9/11/9 10/12/10 8/9/8
f  9/11/9 11/13/11 12/14/12 10/12/10
f  11/13/11 13/15/13 14/16/14 12/14/12
f  13/17/13 15/18/15 16/19/16 14/20/14
f  15/18/15 1/1/1 4/4/4 16/19/16
f  17/21/17 18/22/18 19/23/19 20/24/20
f  17/21/17 20/24/20 21/25/21 22/26/22
f  17/21/17 22/26/22 23/27/23 24/28/24
f  25/29/25 26/30/26 27/31/27 28/32/28
f  25/29/25 28/32/28 29/33/29 25/34/1
f  4/4/4 3/3/3 235/35/30 236/36/31
f  3/3/3 6/6/6 234/37/32 235/35/30
f  6/10/6 8/9/8 233/38/33 234/39/32
f  8/9/8 10/12/10 232/40/34 233/38/33
f  10/12/10 12/14/12 239/41/35 232/40/34
f  12/14/12 14/16/14 238/42/36 239/41/35
f  14/20/14 16/19/16 237/43/37 238/44/36
f  16/19/16 4/4/4 236/36/31 237/43/37
f  31/45/38 30/46/39 243/47/40 244/48/41
f  30/46/39 32/49/42 242/50/43 243/47/40
f  32/51/42 33/52/44 241/53/45 242/54/43
f  33/52/44 34/55/46 240/56/47 241/53/45
f  34/55/46 35/57/48 247/58/49 240/56/47
f  35/57/48 36/59/50 246/60/51 247/58/49
f  36/61/50 37/62/52 245/63/53 246/64/51
f  37/62/52 31/45/38 244/48/41 245/63/53
f  39/65/54 38/66/55 251/67/56 252/68/57
f  38/66/55 40/69/58 250/70/59 251/67/56
f  40/71/58 41/72/60 249/73/61 250/74/59
f  41/72/60 42/75/62 248/76/63 249/73/61
f  42/75/62 43/77/64 255/78/65 248/76/63
f  43/77/64 44/79/66 254/80/67 255/78/65
f  44/81/66 45/82/68 253/83/69 254/84/67
f  45/82/68 39/65/54 252/68/57 253/83/69
f  47/85/70 46/86/71 54/87/72 55/88/73
f  46/86/71 48/89/74 56/90/75 54/87/72
f  48/91/74 49/92/76 57/93/77 56/94/75
f  49/92/76 50/95/78 58/96/79 57/93/77
f  50/95/78 51/97/80 59/98/81 58/96/79
f  51/97/80 52/99/82 60/100/83 59/98/81
f  52/101/82 53/102/84 61/103/85 60/104/83
f  53/102/84 47/85/70 55/88/73 61/103/85
f  55/88/73 54/87/72 62/105/86 63/106/87
f  54/87/72 56/90/75 64/107/88 62/105/86
f  56/94/75 57/93/77 65/108/89 64/109/88
f  57/93/77 58/96/79 66/110/90 65/108/89
f  58/96/79 59/98/81 67/111/91 66/110/90
f  59/98/81 60/100/83 68/112/92 67/111/91
f  60/104/83 61/103/85 69/113/93 68/114/92
f  61/103/85 55/88/73 63/106/87 69/113/93
f  63/115/87 62/116/86 70/117/94 71/118/95
f  62/116/86 64/119/88 72/120/96 70/117/94
f  64/121/88 65/122/89 73/123/97 72/124/96
f  65/122/89 66/125/90 74/126/98 73/123/97
f  66/125/90 67/127/91 75/128/99 74/126/98
f  67/127/91 68/129/92 76/130/100 75/128/99
f  68/131/92 69/132/93 77/133/101 76/134/100
f  69/132/93 63/115/87 71/118/95 77/133/101
f  2/2/2 1/1/1 229/135/102 230/136/103
f  1/1/1 15/18/15 228/137/104 229/135/102
f  15/18/15 13/17/13 227/138/105 228/137/104
f  13/15/13 11/13/11 226/139/106 227/140/105
f  11/13/11 9/11/9 225/141/107 226/139/106
f  9/11/9 7/8/7 224/142/108 225/141/107
f  7/8/7 5/7/5 231/143/109 224/142/108
f  5/5/5 2/2/2 230/136/103 231/144/109
f  79/145/110 78/146/111 221/147/112 222/148/113
f  78/146/111 80/149/114 220/150/115 221/147/112
f  80/149/114 81/151/116 219/152/117 220/150/115
f  81/153/116 82/154/118 218/155/119 219/156/117
f  82/154/118 83/157/120 217/158/121 218/155/119
f  83/157/120 84/159/122 216/160/123 217/158/121
f  84/159/122 85/161/124 223/162/125 216/160/123
f  85/163/124 79/145/110 222/148/113 223/164/125
f  87/165/126 86/166/127 213/167/128 214/168/129
f  86/166/127 88/169/130 212/170/131 213/167/128
f  88/169/130 89/171/132 211/172/133 212/170/131
f  89/173/132 90/174/134 210/175/135 211/176/133
f  90/174/134 91/177/136 209/178/137 210/175/135
f  91/177/136 92/179/138 208/180/139 209/178/137
f  92/179/138 93/181/140 215/182/141 208/180/139
f  93/183/140 87/165/126 214/168/129 215/184/141
f  71/118/95 70/117/94 102/185/142 103/186/143
f  70/117/94 72/120/96 104/187/144 102/185/142
f  72/124/96 73/123/97 105/188/145 104/187/144
f  73/123/97 74/126/98 106/189/146 105/188/145
f  74/126/98 75/128/99 107/190/147 106/189/146
f  75/128/99 76/130/100 108/191/148 107/190/147
f  76/134/100 77/133/101 109/192/149 108/193/148
f  77/133/101 71/118/95 103/186/143 109/192/149
f  103/186/143 102/185/142 110/194/150 111/195/151
f  102/185/142 104/187/144 112/196/152 110/194/150
f  104/187/144 105/188/145 113/197/153 112/198/152
f  105/188/145 106/189/146 114/199/154 113/197/153
f  106/189/146 107/190/147 115/200/155 114/199/154
f  107/190/147 108/191/148 116/201/156 115/200/155
f  108/193/148 109/192/149 117/202/157 116/203/156
f  109/192/149 103/186/143 111/195/151 117/202/157
f  111/195/151 110/194/150 118/204/158 119/205/159
f  110/194/150 112/196/152 120/206/160 118/204/158
f  112/198/152 113/197/153 121/207/161 120/208/160
f  113/197/153 114/199/154 122/205/162 121/207/161
f  114/199/154 115/200/155 123/209/163 122/205/162
f  115/200/155 116/201/156 124/210/164 123/209/163
f  116/203/156 117/202/157 125/211/165 124/212/164
f  111/195/151 119/205/159 126/205/166 125/211/165
f  117/202/157 111/195/151 125/211/165
f  127/213/167 128/214/168 129/215/169 130/214/170
f  127/213/167 130/214/170 131/213/171
f  119/205/159 118/204/158 132/216/172 133/217/25
f  118/204/158 120/206/160 134/218/173 132/216/172
f  120/208/160 121/207/161 135/219/174 134/220/173
f  121/207/161 122/205/162 136/221/175 135/219/174
f  122/205/162 126/222/166 133/223/25 136/221/175
f  126/205/166 119/205/159 133/217/1 133/217/25
f  122/205/162 123/209/163 137/224/176 138/225/177
f  123/209/163 124/210/164 139/226/178 137/224/176
f  124/212/164 125/211/165 140/227/179 139/228/178
f  125/211/165 126/205/166 141/229/180 140/227/179
f  126/222/166 122/205/162 138/225/177 141/225/180
f  133/217/25 132/216/172 142/230/181 143/231/25
f  132/216/172 134/218/173 144/232/182 142/230/181
f  134/220/173 135/219/174 145/233/183 144/234/182
f  135/219/174 136/221/175 146/235/184 145/233/183
f  136/221/175 133/223/25 143/236/25 146/235/184
f  133/217/1 133/217/25 143/231/25 143/231/25
f  138/225/177 137/224/176 147/237/185 148/238/186
f  137/224/176 139/226/178 149/239/187 147/237/185
f  139/228/178 140/227/179 150/240/188 149/241/187
f  140/227/179 141/229/180 151/242/189 150/240/188
f  141/225/180 138/225/177 148/238/186 151/238/189
f  143/231/25 142/230/181 26/243/26 25/244/25
f  142/230/181 144/232/182 27/245/27 26/243/26
f  144/234/182 145/233/183 28/32/28 27/31/27
f  145/233/183 146/235/184 29/33/29 28/32/28
f  146/235/184 143/236/25 25/34/25 29/33/29
f  143/231/1 143/231/25 25/244/25 25/246/25
f  148/238/186 147/237/185 128/214/168 127/213/167
f  147/237/185 149/239/187 129/215/169 128/214/168
f  149/241/187 150/240/188 130/247/170 129/248/169
f  150/240/188 151/242/189 131/249/171 130/247/170
f  151/238/189 148/238/186 127/213/167 131/213/171
f  95/250/190 94/251/191 24/252/24 23/253/23
f  94/251/191 96/254/192 17/255/17 24/252/24
f  96/254/192 97/256/193 18/257/18 17/255/17
f  97/258/193 98/259/194 19/23/19 18/22/18
f  98/259/194 99/260/195 20/24/20 19/23/19
f  99/260/195 100/261/196 21/25/21 20/24/20
f  100/261/196 101/262/197 22/26/22 21/25/21
f  101/263/197 95/250/190 23/253/23 22/264/22
f  152/265/198 153/266/199 154/267/200 155/268/201
f  155/268/201 154/267/200 156/269/202 157/270/203
f  157/270/203 156/269/202 158/271/204 159/272/205
f  159/272/205 158/271/204 160/273/206 161/274/207
f  162/275/208 163/276/209 164/277/210 165/278/211
f  163/276/209 166/279/212 167/280/213 164/277/210
f  166/279/212 168/281/214 169/282/215 167/280/213
f  168/281/214 170/283/216 171/284/217 169/282/215
f  152/265/198 155/268/201 163/285/209 162/286/208
f  155/268/201 157/270/203 166/287/212 163/285/209
f  157/270/203 159/272/205 168/288/214 166/287/212
f  159/272/205 161/274/207 170/289/216 168/288/214
f  161/290/207 160/291/206 171/284/217 170/283/216
f  153/292/199 152/293/198 162/275/208 165/278/211
f  172/294/218 173/295/219 174/296/220 175/297/221
f  175/297/221 174/296/220 176/298/222 177/299/223
f  177/299/223 176/298/222 178/300/224 179/301/225
f  179/301/225 178/300/224 180/302/226 181/303/227
f  182/304/228 183/305/229 184/306/230 185/307/231
f  183/305/229 186/308/232 187/309/233 184/306/230
f  186/308/232 188/310/234 189/311/235 187/309/233
f  188/310/234 190/312/236 191/313/237 189/311/235
f  172/314/218 175/315/221 183/305/229 182/304/228
f  175/315/221 177/316/223 186/308/232 183/305/229
f  177/316/223 179/317/225 188/310/234 186/308/232
f  179/317/225 181/318/227 190/312/236 188/310/234
f  181/303/227 180/302/226 191/319/237 190/320/236
f  173/295/219 172/294/218 182/321/228 185/322/231
f  192/323/238 193/323/239 194/324/240 195/324/241
f  195/325/241 194/325/240 196/326/242 197/326/243
f  197/326/243 196/326/242 198/327/244 199/327/245
f  200/328/246 201/328/247 193/329/239 192/329/238
f  201/330/247 202/331/248 194/324/240 193/323/239
f  202/331/248 203/332/249 196/333/242 194/324/240
f  203/332/249 204/334/250 198/335/244 196/333/242
f  204/336/250 205/336/251 199/327/245 198/327/244
f  205/336/251 206/337/252 197/326/243 199/327/245
f  206/337/252 207/338/253 195/325/241 197/326/243
f  207/338/253 200/328/246 192/329/238 195/325/241
f  209/178/137 208/180/139 100/261/196 99/260/195
f  210/175/135 209/178/137 99/260/195 98/259/194
f  211/176/133 210/175/135 98/259/194 97/258/193
f  212/170/131 211/172/133 97/256/193 96/254/192
f  213/167/128 212/170/131 96/254/192 94/251/191
f  214/168/129 213/167/128 94/251/191 95/250/190
f  215/184/141 214/168/129 95/250/190 101/263/197
f  208/180/139 215/182/141 101/262/197 100/261/196
f  217/158/121 216/160/123 92/179/138 91/177/136
f  218/155/119 217/158/121 91/177/136 90/174/134
f  219/156/117 218/155/119 90/174/134 89/173/132
f  220/150/115 219/152/117 89/171/132 88/169/130
f  221/147/112 220/150/115 88/169/130 86/166/127
f  222/148/113 221/147/112 86/166/127 87/165/126
f  223/164/125 222/148/113 87/165/126 93/183/140
f  216/160/123 223/162/125 93/181/140 92/179/138
f  225/141/107 224/142/108 84/159/122 83/157/120
f  226/139/106 225/141/107 83/157/120 82/154/118
f  227/140/105 226/139/106 82/154/118 81/153/116
f  228/137/104 227/138/105 81/151/116 80/149/114
f  229/135/102 228/137/104 80/149/114 78/146/111
f  230/136/103 229/135/102 78/146/111 79/145/110
f  231/144/109 230/136/103 79/145/110 85/163/124
f  224/142/108 231/143/109 85/161/124 84/159/122
f  233/38/33 232/40/34 34/55/46 33/52/44
f  234/39/32 233/38/33 33/52/44 32/51/42
f  235/35/30 234/37/32 32/49/42 30/46/39
f  236/36/31 235/35/30 30/46/39 31/45/38
f  237/43/37 236/36/31 31/45/38 37/62/52
f  238/44/36 237/43/37 37/62/52 36/61/50
f  239/41/35 238/42/36 36/59/50 35/57/48
f  232/40/34 239/41/35 35/57/48 34/55/46
f  241/53/45 240/56/47 42/75/62 41/72/60
f  242/54/43 241/53/45 41/72/60 40/71/58
f  243/47/40 242/50/43 40/69/58 38/66/55
f  244/48/41 243/47/40 38/66/55 39/65/54
f  245/63/53 244/48/41 39/65/54 45/82/68
f  246/64/51 245/63/53 45/82/68 44/81/66
f  247/58/49 246/60/51 44/79/66 43/77/64
f  240/56/47 247/58/49 43/77/64 42/75/62
f  249/73/61 248/76/63 50/95/78 49/92/76
f  250/74/59 249/73/61 49/92/76 48/91/74
f  251/67/56 250/70/59 48/89/74 46/86/71
f  252/68/57 251/67/56 46/86/71 47/85/70
f  253/83/69 252/68/57 47/85/70 53/102/84
f  254/84/67 253/83/69 53/102/84 52/101/82
f  255/78/65 254/80/67 52/99/82 51/97/80
f  248/76/63 255/78/65 51/97/80 50/95/78
